<?xml version="1.0" encoding="UTF-8"?>
<svg xmlns="http://www.w3.org/2000/svg" xmlns:xlink="http://www.w3.org/1999/xlink"
     width="2200" height="618" viewBox="0 0 2200 618">
<defs>
</defs>
<rect x="0" y="0" width="2200" height="618" fill="white" stroke="white" />
<rect x="260" y="30" width="1920" height="500" fill="none" stroke="#525E75" />
<rect x="260" y="30" width="80" height="500" fill="none" stroke="#525E75" />
<rect x="340" y="30" width="80" height="500" fill="none" stroke="#525E75" />
<rect x="420" y="30" width="80" height="500" fill="none" stroke="#525E75" />
<rect x="500" y="30" width="80" height="500" fill="none" stroke="#525E75" />
<rect x="580" y="30" width="80" height="500" fill="none" stroke="#525E75" />
<rect x="660" y="30" width="80" height="500" fill="none" stroke="#525E75" />
<rect x="740" y="30" width="80" height="500" fill="none" stroke="#525E75" />
<rect x="820" y="30" width="80" height="500" fill="none" stroke="#525E75" />
<rect x="900" y="30" width="80" height="500" fill="none" stroke="#525E75" />
<rect x="980" y="30" width="80" height="500" fill="none" stroke="#525E75" />
<rect x="1060" y="30" width="80" height="500" fill="none" stroke="#525E75" />
<rect x="1140" y="30" width="80" height="500" fill="none" stroke="#525E75" />
<rect x="1220" y="30" width="80" height="500" fill="none" stroke="#525E75" />
<rect x="1300" y="30" width="80" height="500" fill="none" stroke="#525E75" />
<rect x="1380" y="30" width="80" height="500" fill="none" stroke="#525E75" />
<rect x="1460" y="30" width="80" height="500" fill="none" stroke="#525E75" />
<rect x="1540" y="30" width="80" height="500" fill="none" stroke="#525E75" />
<rect x="1620" y="30" width="80" height="500" fill="none" stroke="#525E75" />
<rect x="1700" y="30" width="80" height="500" fill="none" stroke="#525E75" />
<rect x="1780" y="30" width="80" height="500" fill="none" stroke="#525E75" />
<rect x="1860" y="30" width="80" height="500" fill="none" stroke="#525E75" />
<rect x="1940" y="30" width="80" height="500" fill="none" stroke="#525E75" />
<rect x="2020" y="30" width="80" height="500" fill="none" stroke="#525E75" />
<rect x="2100" y="30" width="80" height="500" fill="none" stroke="#525E75" />
<rect x="0" y="30" width="2180" height="50" fill="none" stroke="#525E75" />
<rect x="0" y="80" width="2180" height="50" fill="none" stroke="#525E75" />
<rect x="0" y="130" width="2180" height="50" fill="none" stroke="#525E75" />
<rect x="0" y="180" width="2180" height="50" fill="none" stroke="#525E75" />
<rect x="0" y="230" width="2180" height="50" fill="none" stroke="#525E75" />
<rect x="0" y="280" width="2180" height="50" fill="none" stroke="#525E75" />
<rect x="0" y="330" width="2180" height="50" fill="none" stroke="#525E75" />
<rect x="0" y="380" width="2180" height="50" fill="none" stroke="#525E75" />
<rect x="0" y="430" width="2180" height="50" fill="none" stroke="#525E75" />
<rect x="0" y="480" width="2180" height="50" fill="none" stroke="#525E75" />
<text x="260" y="25" font-size="14" fill="black">0</text>
<text x="340" y="25" font-size="14" fill="black">1</text>
<text x="420" y="25" font-size="14" fill="black">2</text>
<text x="500" y="25" font-size="14" fill="black">3</text>
<text x="580" y="25" font-size="14" fill="black">4</text>
<text x="660" y="25" font-size="14" fill="black">5</text>
<text x="740" y="25" font-size="14" fill="black">6</text>
<text x="820" y="25" font-size="14" fill="black">7</text>
<text x="900" y="25" font-size="14" fill="black">8</text>
<text x="980" y="25" font-size="14" fill="black">9</text>
<text x="1060" y="25" font-size="14" fill="black">10</text>
<text x="1140" y="25" font-size="14" fill="black">11</text>
<text x="1220" y="25" font-size="14" fill="black">12</text>
<text x="1300" y="25" font-size="14" fill="black">13</text>
<text x="1380" y="25" font-size="14" fill="black">14</text>
<text x="1460" y="25" font-size="14" fill="black">15</text>
<text x="1540" y="25" font-size="14" fill="black">16</text>
<text x="1620" y="25" font-size="14" fill="black">17</text>
<text x="1700" y="25" font-size="14" fill="black">18</text>
<text x="1780" y="25" font-size="14" fill="black">19</text>
<text x="1860" y="25" font-size="14" fill="black">20</text>
<text x="1940" y="25" font-size="14" fill="black">21</text>
<text x="2020" y="25" font-size="14" fill="black">22</text>
<text x="2100" y="25" font-size="14" fill="black">23</text>
<text x="2180" y="25" font-size="14" fill="black">24</text>
<rect x="0" y="30" width="80" height="500" fill="none" stroke="#525E75" />
<text x="10" y="55" font-size="14" fill="black"></text>
<text x="10" y="105" font-size="14" fill="black">1</text>
<text x="10" y="155" font-size="14" fill="black">2</text>
<text x="10" y="205" font-size="14" fill="black"></text>
<text x="10" y="255" font-size="14" fill="black">3</text>
<text x="10" y="305" font-size="14" fill="black">4</text>
<text x="10" y="355" font-size="14" fill="black">5</text>
<text x="10" y="405" font-size="14" fill="black"></text>
<text x="10" y="455" font-size="14" fill="black">6</text>
<text x="10" y="505" font-size="14" fill="black">7</text>
<rect x="80" y="30" width="180" height="500" fill="none" stroke="#525E75" />
<text x="90" y="55" font-size="14" fill="black"></text>
<text x="90" y="105" font-size="14" fill="black">Заказчик</text>
<text x="90" y="155" font-size="14" fill="black">Исполнитель</text>
<text x="90" y="205" font-size="14" fill="black"></text>
<text x="90" y="255" font-size="14" fill="black">Исполнитель</text>
<text x="90" y="305" font-size="14" fill="black">Исполнитель</text>
<text x="90" y="355" font-size="14" fill="black">Заказчик</text>
<text x="90" y="405" font-size="14" fill="black"></text>
<text x="90" y="455" font-size="14" fill="black">Исполнитель</text>
<text x="90" y="505" font-size="14" fill="black">Заказчик</text>
<rect x="260" y="30" width="480" height="50" fill="#000000" stroke="#525E75" rx="5" />
<text x="265" y="50" font-size="14" fill="white">Подготовительные работы</text>
<text x="265" y="69" font-size="14" fill="white">06:00</text>
<rect x="260" y="80" width="80" height="50" fill="#CCFF99" stroke="#A5DD9B" rx="5" />
<circle cx="300" cy="105" r="14" stroke="#525E75" fill="#E0E0E0" />
<text x="296" y="108" font-size="14" stroke="black">1</text>
<rect x="340" y="130" width="400" height="50" fill="#D2E0FB" stroke="#7EA6E0" rx="5" />
<text x="345" y="150" font-size="14" fill="#1D1E33">Сделать BRD</text>
<text x="345" y="169" font-size="14" fill="#1D1E33">05:00</text>
<rect x="740" y="180" width="800" height="50" fill="#000000" stroke="#525E75" rx="5" />
<text x="745" y="200" font-size="14" fill="white">Основные работы</text>
<text x="745" y="219" font-size="14" fill="white">10:00</text>
<rect x="740" y="230" width="320" height="50" fill="#D2E0FB" stroke="#7EA6E0" rx="5" />
<text x="745" y="250" font-size="14" fill="#1D1E33">Написать ТЗ</text>
<text x="745" y="269" font-size="14" fill="#1D1E33">04:00</text>
<rect x="1060" y="280" width="320" height="50" fill="#D2E0FB" stroke="#7EA6E0" rx="5" />
<text x="1065" y="300" font-size="14" fill="#1D1E33">Реализовать </text>
<text x="1065" y="319" font-size="14" fill="#1D1E33">04:00</text>
<rect x="1380" y="330" width="160" height="50" fill="#CCFF99" stroke="#A5DD9B" rx="5" />
<text x="1385" y="350" font-size="14" fill="#21421E">Тестирование</text>
<text x="1385" y="369" font-size="14" fill="#21421E">02:00</text>
<rect x="1540" y="380" width="560" height="50" fill="#000000" stroke="#525E75" rx="5" />
<text x="1545" y="400" font-size="14" fill="white">Финальные работы</text>
<text x="1545" y="419" font-size="14" fill="white">07:00</text>
<rect x="1540" y="430" width="400" height="50" fill="#D2E0FB" stroke="#7EA6E0" rx="5" />
<text x="1545" y="450" font-size="14" fill="#1D1E33">ПСИ</text>
<text x="1545" y="469" font-size="14" fill="#1D1E33">05:00</text>
<rect x="1940" y="480" width="160" height="50" fill="#CCFF99" stroke="#A5DD9B" rx="5" />
<text x="1945" y="500" font-size="14" fill="#21421E">Акт</text>
<text x="1945" y="519" font-size="14" fill="#21421E">02:00</text>
<text x="5" y="580" font-size="14" fill="black">(1) Написать требования : 01:00</text>
</svg>